<?xml version="1.0" standalone="no"?>
<!DOCTYPE svg PUBLIC "-//W3C//DTD SVG 20010904//EN"
 "http://www.w3.org/TR/2001/REC-SVG-20010904/DTD/svg10.dtd">
<svg version="1.0" xmlns="http://www.w3.org/2000/svg"
 width="512.000000pt" height="512.000000pt" viewBox="0 0 512.000000 512.000000"
 preserveAspectRatio="xMidYMid meet">
<metadata>
Created by potrace 1.15, written by Peter Selinger 2001-2017
</metadata>
<g transform="translate(0.000000,512.000000) scale(0.100000,-0.100000)"
fill="#000000" stroke="none">
<path d="M2365 5114 c-22 -2 -103 -13 -180 -24 -1033 -146 -1886 -934 -2119
-1957 -48 -212 -60 -323 -60 -568 -1 -356 49 -626 171 -940 86 -220 283 -565
283 -495 0 5 79 227 175 492 96 266 315 872 487 1348 172 476 317 867 323 870
5 3 79 -115 165 -261 394 -674 801 -1366 813 -1383 12 -16 24 7 119 224 l105
243 -60 106 c-61 107 -506 890 -514 904 -2 4 90 7 204 7 l209 0 159 -291 c88
-161 165 -298 170 -305 7 -11 44 65 142 288 l131 303 196 3 c108 1 196 0 196
-3 0 -7 -21 -57 -366 -871 l-64 -152 126 -231 c70 -127 130 -231 133 -231 5 0
932 2194 956 2261 4 12 -20 38 -87 91 -358 290 -786 480 -1235 548 -133 20
-476 34 -578 24z"/>
<path d="M4503 4113 c-41 -101 -188 -464 -398 -978 -92 -225 -211 -518 -265
-650 -239 -588 -452 -1110 -455 -1113 -1 -1 -114 195 -251 437 -137 242 -252
436 -256 433 -3 -4 -86 -196 -183 -427 -98 -231 -180 -426 -184 -433 -4 -7
-66 88 -153 235 -80 137 -257 437 -393 668 -137 231 -288 489 -338 573 -49 83
-93 152 -96 152 -4 0 -70 -174 -148 -387 -257 -704 -440 -1204 -556 -1520
l-114 -312 91 -89 c309 -300 747 -537 1181 -636 207 -47 333 -60 575 -60 312
0 534 34 804 124 384 129 705 327 995 613 404 400 647 884 737 1467 25 161 25
528 1 695 -67 448 -242 872 -496 1200 -25 32 -51 65 -57 73 -8 11 -17 -4 -41
-65z"/>
</g>
</svg>
